<svg xmlns="http://www.w3.org/2000/svg" viewBox="0 0 64 64" width="64" height="64">
  <!-- Pixel art stopwatch -->
  <defs>
    <style>
      .pixel { shape-rendering: crispEdges; }
    </style>
  </defs>
  
  <!-- Main body -->
  <rect class="pixel" x="16" y="20" width="32" height="32" fill="#C0C0C0" />
  <rect class="pixel" x="18" y="18" width="28" height="2" fill="#808080" />
  <rect class="pixel" x="14" y="20" width="2" height="32" fill="#808080" />
  <rect class="pixel" x="48" y="20" width="2" height="32" fill="#404040" />
  <rect class="pixel" x="16" y="52" width="32" height="2" fill="#404040" />
  
  <!-- Inner circle -->
  <rect class="pixel" x="20" y="24" width="24" height="24" fill="#FFFFFF" />
  <rect class="pixel" x="22" y="22" width="20" height="2" fill="#E0E0E0" />
  <rect class="pixel" x="18" y="24" width="2" height="24" fill="#E0E0E0" />
  <rect class="pixel" x="44" y="24" width="2" height="24" fill="#A0A0A0" />
  <rect class="pixel" x="20" y="48" width="24" height="2" fill="#A0A0A0" />
  
  <!-- Clock markings -->
  <rect class="pixel" x="31" y="26" width="2" height="2" fill="#000000" />
  <rect class="pixel" x="40" y="35" width="2" height="2" fill="#000000" />
  <rect class="pixel" x="31" y="44" width="2" height="2" fill="#000000" />
  <rect class="pixel" x="22" y="35" width="2" height="2" fill="#000000" />
  
  <!-- Clock hands -->
  <rect class="pixel" x="31" y="30" width="2" height="6" fill="#FF0000" />
  <rect class="pixel" x="33" y="35" width="6" height="2" fill="#FF0000" />
  
  <!-- Center dot -->
  <rect class="pixel" x="31" y="35" width="2" height="2" fill="#000000" />
  
  <!-- Winding crown -->
  <rect class="pixel" x="28" y="14" width="8" height="4" fill="#C0C0C0" />
  <rect class="pixel" x="30" y="12" width="4" height="2" fill="#808080" />
  <rect class="pixel" x="26" y="14" width="2" height="4" fill="#808080" />
  <rect class="pixel" x="36" y="14" width="2" height="4" fill="#404040" />
  <rect class="pixel" x="28" y="18" width="8" height="2" fill="#404040" />
  
  <!-- Winding button -->
  <rect class="pixel" x="30" y="10" width="4" height="2" fill="#E0E0E0" />
  <rect class="pixel" x="32" y="8" width="2" height="2" fill="#C0C0C0" />
  
  <!-- Side buttons -->
  <rect class="pixel" x="12" y="30" width="4" height="4" fill="#FFA500" />
  <rect class="pixel" x="48" y="30" width="4" height="4" fill="#FFA500" />
  <rect class="pixel" x="12" y="38" width="4" height="4" fill="#FFA500" />
  <rect class="pixel" x="48" y="38" width="4" height="4" fill="#FFA500" />
</svg>
