<svg xmlns="http://www.w3.org/2000/svg" viewBox="0 0 32 32" width="32" height="32">
  <!-- Pixel art sun -->
  <defs>
    <style>
      .pixel { shape-rendering: crispEdges; }
    </style>
  </defs>
  
  <!-- Sun rays -->
  <rect class="pixel" x="14" y="0" width="4" height="2" fill="#FF8C42" />
  <rect class="pixel" x="14" y="30" width="4" height="2" fill="#FF8C42" />
  <rect class="pixel" x="0" y="14" width="2" height="4" fill="#FF8C42" />
  <rect class="pixel" x="30" y="14" width="2" height="4" fill="#FF8C42" />
  
  <rect class="pixel" x="4" y="4" width="2" height="2" fill="#FF8C42" />
  <rect class="pixel" x="26" y="4" width="2" height="2" fill="#FF8C42" />
  <rect class="pixel" x="4" y="26" width="2" height="2" fill="#FF8C42" />
  <rect class="pixel" x="26" y="26" width="2" height="2" fill="#FF8C42" />
  
  <!-- Additional rays -->
  <rect class="pixel" x="12" y="2" width="2" height="2" fill="#FF6B35" />
  <rect class="pixel" x="18" y="2" width="2" height="2" fill="#FF6B35" />
  <rect class="pixel" x="12" y="28" width="2" height="2" fill="#FF6B35" />
  <rect class="pixel" x="18" y="28" width="2" height="2" fill="#FF6B35" />
  <rect class="pixel" x="2" y="12" width="2" height="2" fill="#FF6B35" />
  <rect class="pixel" x="2" y="18" width="2" height="2" fill="#FF6B35" />
  <rect class="pixel" x="28" y="12" width="2" height="2" fill="#FF6B35" />
  <rect class="pixel" x="28" y="18" width="2" height="2" fill="#FF6B35" />
  
  <!-- Sun body - gradient from yellow to orange -->
  <rect class="pixel" x="10" y="8" width="12" height="2" fill="#FFD23F" />
  <rect class="pixel" x="8" y="10" width="16" height="2" fill="#FFD23F" />
  <rect class="pixel" x="8" y="12" width="16" height="2" fill="#FFE066" />
  <rect class="pixel" x="8" y="14" width="16" height="2" fill="#FFE066" />
  <rect class="pixel" x="8" y="16" width="16" height="2" fill="#FFE066" />
  <rect class="pixel" x="8" y="18" width="16" height="2" fill="#FFD23F" />
  <rect class="pixel" x="8" y="20" width="16" height="2" fill="#FFD23F" />
  <rect class="pixel" x="10" y="22" width="12" height="2" fill="#FF8C42" />
  
  <!-- Sun center highlight -->
  <rect class="pixel" x="12" y="12" width="8" height="2" fill="#FFFF99" />
  <rect class="pixel" x="12" y="14" width="8" height="2" fill="#FFFF99" />
  <rect class="pixel" x="12" y="16" width="8" height="2" fill="#FFFF99" />
</svg>
